<?xml version="1.0" encoding="UTF-8"?>
<svg id="Layer_1" data-name="Layer 1" xmlns="http://www.w3.org/2000/svg" viewBox="0 0 1080 1080">
  <defs>
    <style>
      .cls-1 {
        fill: #101827;
      }

      .cls-2 {
        fill: #22c55e;
      }
    </style>
  </defs>
  <rect class="cls-1" width="1080" height="1080" rx="149.18" ry="149.18"/>
  <g>
    <path class="cls-2" d="M172.86,797.92v-490.7h290.5v88.2h-184.1v109.2h158.2v88.2h-158.2v116.9h192.5v88.2H172.86Z"/>
    <path class="cls-2" d="M674.05,797.92h-107.1v-490.7h107.1v490.7ZM822.45,307.22h123.2l-152.6,238.7,168,252h-133.7l-150.5-247.1v-2.8l145.6-240.8Z"/>
  </g>
  <path class="cls-1" d="M177.92,600.98c-16.82,29.18-27.22,92.47-5.8,120.12,14.59-53.73,49.12-119.09,130.32-149.01-40.95,23.4-79.53,60.25-101.55,112.21-26.07,45.52-18.16,119.7-18.16,119.7h24.58c-11.99-15.91-12.44-49.08-8.22-67.03,38.69,10.32,92.68-9.51,127.4-49.45,41.69-47.96,12.83-114.9,61.99-162.34-126.12-17.92-192.39,44.27-210.56,75.79Z"/>
  <path class="cls-2" d="M157.78,797.92s2.1-174.73,144.66-225.83c-80.44,39.91-134.97,116.74-120.2,225.83h-24.46Z"/>
</svg>