<?xml version="1.0" encoding="UTF-8"?>
<svg id="Layer_1" data-name="Layer 1" xmlns="http://www.w3.org/2000/svg" viewBox="0 0 512 512">
  <defs>
    <style>
      .cls-1 {
        fill: #101827;
      }

      .cls-2 {
        fill: #22c55e;
      }
    </style>
  </defs>
  <rect class="cls-1" x=".01" y=".01" width="512" height="512"/>
  <g>
    <path class="cls-2" d="M81.96,378.15v-232.62h137.72v41.81h-87.28v51.77h75v41.81h-75v55.42h91.26v41.81H81.96Z"/>
    <path class="cls-2" d="M319.56,378.15h-50.77v-232.62h50.77v232.62ZM389.91,145.53h58.4l-72.34,113.16,79.64,119.46h-63.38l-71.35-117.14v-1.33l69.02-114.15Z"/>
  </g>
  <path class="cls-1" d="M84.36,284.79c-7.97,13.83-12.9,43.84-2.75,56.95,6.92-25.47,23.29-56.46,61.78-70.64-19.41,11.09-37.7,28.56-48.14,53.19-12.36,21.58-8.61,56.75-8.61,56.75h11.65c-5.68-7.54-5.9-23.27-3.9-31.78,18.34,4.89,43.94-4.51,60.39-23.44,19.76-22.74,6.08-54.47,29.39-76.96-59.79-8.5-91.21,20.99-99.82,35.93Z"/>
  <path class="cls-2" d="M74.82,378.15s1-82.84,68.58-107.06c-38.13,18.92-63.98,55.34-56.98,107.06h-11.6Z"/>
</svg>